Coordinates
version=1
nRows=24
nColumns=22
inDegrees=yes

Units are S.I. units (second, meters, Newtons, ...)
If the header above contains a line with 'inDegrees', this indicates whether rotational values are in degrees (yes) or radians (no).

endheader
time	pelvis_tilt	pelvis_list	pelvis_rotation	pelvis_tx	pelvis_ty	pelvis_tz	hip_flexion_r	hip_adduction_r	hip_rotation_r	knee_angle_r	ankle_angle_r	subtalar_angle_r	hip_flexion_l	hip_adduction_l	hip_rotation_l	knee_angle_l	ankle_angle_l	subtalar_angle_l	lumbar_extension	lumbar_bending	lumbar_rotation
      5.05000000	     -3.73946670	      0.44892472	   -112.79893858	      0.56350738	      0.92288095	      0.36898386	      2.33314470	     14.43624911	      8.45789967	    -18.44326895	     11.38262769	    -10.74549359	     25.69241856	    -12.54020234	      3.72424812	    -49.65094348	      5.31468276	     -0.84208833	     -6.79648411	      3.56201244	     -0.91832275
      5.06000000	     -3.53739847	      0.39718655	   -113.87404469	      0.56169655	      0.92323473	      0.37580052	      1.72372192	     14.09403151	      9.57426925	    -18.45368586	     11.67463485	    -10.80028815	     25.90374480	    -12.25550358	      3.77511800	    -47.04539042	      5.63763035	     -0.73463063	     -6.79748405	      3.33300579	     -0.36692345
      5.07000000	     -3.37146809	      0.29562622	   -114.85710942	      0.56004211	      0.92358841	      0.38268273	      1.05173916	     13.73330265	     10.58909439	    -18.42066649	     11.96076193	    -10.87622088	     26.00551044	    -11.89755783	      3.95209654	    -44.33313697	      5.80759740	     -0.38317888	     -6.86134330	      3.13360194	      0.08672430
      5.08000000	     -3.19522576	      0.25256224	   -115.77850300	      0.55851173	      0.92369461	      0.38953377	      0.50773454	     13.36831572	     11.48689403	    -18.46089418	     12.30328205	    -10.89897157	     26.14382409	    -11.49299977	      4.24080923	    -41.56121028	      5.87497425	      0.13548205	     -6.85789766	      2.96015857	      0.50408706
      5.09000000	     -3.03864504	      0.21922219	   -116.62318695	      0.55709142	      0.92365649	      0.39641219	     -0.00174154	     13.00681829	     12.26352780	    -18.52115792	     12.66643495	    -10.89850217	     26.25075106	    -11.05945978	      4.65012089	    -38.73122396	      5.86963898	      0.77817536	     -6.85086305	      2.82175959	      0.85595368
      5.10000000	     -2.91441774	      0.18961068	   -117.38945962	      0.55574798	      0.92348318	      0.40333122	     -0.49835335	     12.66252712	     12.92657380	    -18.59073430	     13.04333713	    -10.88121680	     26.31818497	    -10.62587577	      5.16111627	    -35.86415991	      5.82116629	      1.49236907	     -6.85221997	      2.72513878	      1.13917766
      5.11000000	     -2.83008794	      0.15841680	   -118.08077756	      0.55444878	      0.92318239	      0.41030545	     -0.99830301	     12.34289541	     13.48403790	    -18.66489505	     13.42700170	    -10.85182185	     26.34076791	    -10.21611125	      5.73789970	    -32.98610105	      5.76499556	      2.22575483	     -6.87060485	      2.67313024	      1.34981234
      5.12000000	     -2.79193289	      0.12099283	   -118.69794142	      0.55316225	      0.92276650	      0.41736957	     -1.52461103	     12.05150041	     13.92813418	    -18.72394625	     13.82165684	    -10.81208629	     26.31428892	     -9.84762022	      6.33479759	    -30.12285495	      5.72037293	      2.93290514	     -6.90860138	      2.66378685	      1.52546812
      5.13000000	     -2.80575781	      0.07169681	   -119.24835088	      0.55186573	      0.92223874	      0.42450105	     -2.07895773	     11.79974892	     14.30495379	    -18.79067314	     14.20304041	    -10.76193243	     26.24297323	     -9.53566043	      6.89811792	    -27.31692647	      5.71556243	      3.63756600	     -6.98034864	      2.69914489	      1.61704753
      5.14000000	     -2.86522979	      0.01321637	   -119.74619695	      0.55054086	      0.92160416	      0.43172698	     -2.66569700	     11.57786544	     14.59705473	    -18.85202057	     14.59283383	    -10.69675230	     26.13454068	     -9.27821735	      7.37898906	    -24.60124844	      5.74359580	      4.26768450	     -7.07557429	      2.77082635	      1.69281120
      5.15000000	     -2.96289798	     -0.06356905	   -120.19770947	      0.54916376	      0.92087315	      0.43904068	     -3.28732290	     11.37915507	     14.83443203	    -18.92120070	     14.99203085	    -10.61337401	     25.99186871	     -9.06263164	      7.74406622	    -22.01540787	      5.80277133	      4.85274276	     -7.20154703	      2.86015516	      1.73544884
      5.16000000	     -3.08625455	     -0.15209360	   -120.61042878	      0.54773116	      0.92004147	      0.44644976	     -3.93804855	     11.19621774	     15.05068171	    -18.99142860	     15.41458071	    -10.51023973	     25.83075101	     -8.87142279	      8.00362760	    -19.59356710	      5.88081925	      5.38641084	     -7.34412567	      2.95900042	      1.72886815
      5.17000000	     -3.26033237	     -0.23902848	   -120.99435891	      0.54620197	      0.91913348	      0.45395430	     -4.63665755	     11.05506463	     15.23962930	    -19.02750104	     15.77252272	    -10.38809773	     25.65013603	     -8.72690822	      8.21895116	    -17.36368191	      6.00689358	      5.92675315	     -7.50193456	      3.09021409	      1.75731172
      5.18000000	     -3.44335075	     -0.32257124	   -121.34954505	      0.54461179	      0.91811332	      0.46152213	     -5.32821729	     10.92694433	     15.42329626	    -19.09289208	     16.18734890	    -10.25558575	     25.47876730	     -8.58310421	      8.43619244	    -15.35814085	      6.10970087	      6.34569932	     -7.65701647	      3.22038166	      1.73389543
      5.19000000	     -3.65568928	     -0.38950555	   -121.68465222	      0.54291214	      0.91700799	      0.46916776	     -6.03512867	     10.83242409	     15.60441773	    -19.14320229	     16.55038368	    -10.11259198	     25.32063509	     -8.46741126	      8.70921275	    -13.61442543	      6.24478941	      6.70682169	     -7.80375105	      3.37155846	      1.72119449
      5.20000000	     -3.88406648	     -0.43542143	   -121.99740539	      0.54110913	      0.91581587	      0.47686861	     -6.73637338	     10.76617348	     15.79521885	    -19.19667705	     16.89759842	     -9.96172045	     25.19704162	     -8.36843832	      9.06023434	    -12.16781608	      6.38039386	      6.98286870	     -7.93240910	      3.53288120	      1.69151105
      5.21000000	     -4.12246278	     -0.45029029	   -122.29735012	      0.53919437	      0.91453880	      0.48463460	     -7.42129443	     10.72585135	     15.99526629	    -19.25050297	     17.20560182	     -9.80383436	     25.13330645	     -8.28614747	      9.48439637	    -11.07077875	      6.52945981	      7.18432987	     -8.02773016	      3.70671678	      1.66298561
      5.22000000	     -4.36997336	     -0.41689842	   -122.57977125	      0.53719121	      0.91316656	      0.49245387	     -8.06811234	     10.72304817	     16.21229812	    -19.31346860	     17.48841288	     -9.65072229	     25.16555951	     -8.22175312	      9.97756136	    -10.36695613	      6.66710501	      7.30569258	     -8.07638530	      3.90666037	      1.61944572
      5.23000000	     -4.60834285	     -0.36243136	   -122.86840998	      0.53502911	      0.91175943	      0.50035148	     -8.69455394	     10.72096877	     16.44252407	    -19.38661038	     17.71363058	     -9.48176045	     25.24943865	     -8.15447983	     10.51739286	    -10.03297598	      6.81071200	      7.39841175	     -8.08328377	      4.08726657	      1.59329703
      5.24000000	     -4.84310483	     -0.25800038	   -123.15388990	      0.53275994	      0.91028413	      0.50830264	     -9.26697245	     10.74600508	     16.68970456	    -19.48480143	     17.90853644	     -9.35361656	     25.42449717	     -8.09353318	     11.11999669	    -10.08038121	      6.92476015	      7.43409855	     -8.03502090	      4.28252598	      1.56049802
      5.25000000	     -5.06301516	     -0.13836327	   -123.44774676	      0.53034187	      0.90882322	      0.51636912	     -9.83077669	     10.75723229	     16.93806609	    -19.57394590	     18.04310353	     -9.20765308	     25.61787751	     -8.01562385	     11.79171365	    -10.42811597	      6.99521033	      7.46010584	     -7.94688573	      4.45567199	      1.55097878
      5.26000000	     -5.26041070	      0.00590314	   -123.74904720	      0.52778877	      0.90737238	      0.52455220	    -10.36387239	     10.75536011	     17.17881612	    -19.66967620	     18.11486148	     -9.05107952	     25.83067573	     -7.91682789	     12.54338640	    -11.03008831	      6.99306820	      7.48128330	     -7.80680031	      4.61077934	      1.55082568
      5.27000000	     -5.41264059	      0.19322738	   -124.05535037	      0.52511481	      0.90591277	      0.53287402	    -10.82972773	     10.72829519	     17.37158812	    -19.77872384	     18.10896965	     -8.85812662	     26.07552155	     -7.78545861	     13.38679172	    -11.82438815	      6.88263729	      7.52956406	     -7.57805111	      4.74207683	      1.57444824
      5.28000000	     -5.50501334	      0.38727598	   -124.37556342	      0.52231752	      0.90450994	      0.54131807	    -11.24483509	     10.64983221	     17.55754042	    -19.92302289	     18.07375253	     -8.68417410	     26.30160718	     -7.59588896	     14.29903599	    -12.73038458	      6.61649308	      7.62258763	     -7.29054679	      4.81215097	      1.58827239
